<svg width="1024" height="1024" xmlns="http://www.w3.org/2000/svg">
    <g>
        <title>background</title>
        <rect x="-1" y="-1" width="1026" height="1026" id="canvas_background" fill="none"/>
    </g>

    <g>
        <title>Layer 1</title>
        <path d="m525.75,796.28125a280.6875,280.6875 0 0 1 -280.6875,-280.6875c0,-46.78125 11.69531,-92.15906 32.74687,-130.9875l-68.30062,-68.30062c-36.48938,57.54094 -58.00875,125.84156 -58.00875,199.28812a374.25,374.25 0 0 0 374.25,374.25l0,140.34375l187.125,-187.125l-187.125,-187.125l0,140.34375z" stroke="null" fill="#30B786" id="svg_right"/>
        <path d="m520,140.40625l0,-140.34375l-187.125,187.125l187.125,187.125l0,-140.34375a280.6875,280.6875 0 0 1 280.6875,280.6875c0,46.78125 -11.69531,92.15906 -32.74687,130.9875l68.30062,68.30062c36.48937,-57.54094 58.00875,-125.84156 58.00875,-199.28813a374.25,374.25 0 0 0 -374.25,-374.25l0,0.00001z" stroke="null" fill="#2383D4" id="svg_left"/>
        <path stroke="null" d="m369.60259,508.83482c-0.05321,46.18783 15.43141,84.87279 41.87767,112.86219l-53.42463,0l0,-215.50771l46.40067,0c-22.08289,26.71232 -34.90693,61.83209 -34.85372,102.64552l0.00001,0zm329.00844,-102.59231l-44.48505,0c16.7085,22.72143 25.91414,51.88149 24.58384,86.57556c0.26606,3.19271 0.26606,6.22578 0,12.82404l-198.16067,0c-0.10642,58.37332 20.69939,103.70976 73.75153,103.92261c36.45007,-0.15963 62.78991,-27.13801 80.8287,-56.4577l51.29616,25.64808c-9.25885,16.44244 -19.4223,30.75641 -30.80962,42.99512l42.99512,0l0,-215.50771l0,0.00001zm-42.99512,215.50771s0,-0.05321 0,0l-0.10642,0l0.10642,0zm-1.64957,-215.50771l0.15963,0l-0.05321,-0.05321l-0.10642,0.05321zm-122.75957,5.10833c-24.4242,0.05321 -45.28322,17.82595 -47.46491,44.2722l90.40681,0c-0.58533,-26.44625 -18.35806,-44.21899 -42.94191,-44.2722l0.00001,0z" fill="#A90533" id="svg_center"/>
    </g>
</svg>